<?xml version="1.0" encoding="utf-8"?>
<!-- Svg Vector Icons : http://www.onlinewebfonts.com/icon -->
<!DOCTYPE svg PUBLIC "-//W3C//DTD SVG 1.1//EN" "http://www.w3.org/Graphics/SVG/1.1/DTD/svg11.dtd">
<svg version="1.1" xmlns="http://www.w3.org/2000/svg" xmlns:xlink="http://www.w3.org/1999/xlink" x="0px" y="0px" viewBox="0 0 1000 1000" enable-background="new 0 0 1000 1000" xml:space="preserve">
<metadata> Svg Vector Icons : http://www.onlinewebfonts.com/icon </metadata>
<g><g transform="translate(0.000000,512.000000) scale(0.100000,-0.100000)"><path d="M4555.7,5006.8c-964-104.3-1804.4-486.8-2457.3-1116.6c-560.2-539-900.2-1116.6-1087.6-1846.9c-34.8-137.2-69.6-299.4-77.3-361.3l-13.5-108.2l131.4,25.1c73.4,13.5,376.7,71.5,676.2,127.5l542.9,100.4l63.8,106.3c90.8,152.6,314.9,382.5,479.1,488.8c448.2,295.6,1022,334.2,1508.8,104.3c280.1-133.3,483-309.1,649.1-569.9l88.9-137.2l77.3,119.8c164.2,253.1,341.9,419.2,597,554.4c229.9,123.7,378.6,162.3,666.5,172c299.4,11.6,481-23.2,734.1-146.8c276.3-131.4,469.4-303.3,641.4-566c46.3-73.4,88.9-131.4,94.6-131.4c3.9,0,274.3-58,598.9-127.5c324.6-69.5,595-121.7,600.8-115.9c34.8,34.8-114,641.4-227.9,927.3c-208.7,527.4-496.5,956.3-917.7,1363.9c-322.6,313-596.9,508.1-991.1,705.1c-403.8,200.9-824.9,334.2-1277,405.7C5415.4,5016.5,4787.5,5033.9,4555.7,5006.8z"/><path d="M1509.1,1351.7l-624-117.8V919c0-173.9,7.7-314.9,15.4-314.9c9.7,0,311-30.9,672.3-67.6c359.3-36.7,656.8-67.6,658.8-67.6c3.9,0-11.6,42.5-30.9,94.7c-88.9,222.2-125.6,606.6-77.3,811.4c9.7,46.4,15.4,86.9,13.5,88.9C2133.1,1465.7,1851,1415.5,1509.1,1351.7z"/><path d="M8006,1324.7c5.8-73.4,13.5-143,19.3-156.5c17.4-54.1-32.8-401.8-77.3-531.3c-25.1-77.3-44.4-139.1-44.4-141c1.9,0,139.1,30.9,303.3,69.6c164.2,40.6,436.6,104.3,604.7,144.9l303.3,71.5v220.2c0,121.7-3.9,220.2-7.7,220.2s-249.2,52.2-546.7,115.9c-295.6,63.7-544.8,115.9-552.5,115.9S7998.3,1396.2,8006,1324.7z"/><path d="M3761.7,992.4c-63.7-63.8-75.3-86.9-75.3-156.5c0-146.8,100.5-251.1,241.5-251.1c144.9,0,241.5,98.5,241.5,245.3c-1.9,141-102.4,237.6-249.2,237.6C3848.6,1067.8,3825.4,1056.2,3761.7,992.4z"/><path d="M6107,1029.1c-214.4-129.4-121.7-444.3,131.4-444.3c112.1,0,199,63.7,231.8,170C6532,967.3,6296.3,1145,6107,1029.1z"/><path d="M8438.7,283.4c-367.1-88.9-685.8-158.4-709-154.6c-30.9,3.9-71.5-23.2-144.9-98.5c-200.9-206.7-421.2-338.1-705.1-423.1c-228-67.6-573.8-73.4-805.6-9.7c-396,106.3-732.2,355.5-940.8,697.4l-69.6,114l-73.4-115.9c-141-229.9-396-461.7-641.4-585.4c-139.1-69.5-394.1-141-566-156.5c-423.1-38.6-898.3,137.2-1215.1,452c-69.5,69.6-135.2,123.7-143,121.7c-15.5-3.9-1309.8,123.6-1456.6,143l-83.1,11.6v-2436.1v-2438l48.3-46.4c63.7-65.7,168.1-65.7,231.8,0c46.4,44.4,48.3,56,48.3,320.7c0,210.6,5.8,270.5,25.1,262.7c83.1-30.9,2333.7-709,2355-709c13.5,0,164.2,127.5,334.2,280.1l309.1,280.1h782.4l782.4-1.9l307.2-285.9l307.2-285.9l1141.7,345.8c627.9,189.3,1161,349.7,1186.2,355.5l42.5,11.6v-262.7c0-255,1.9-266.6,48.3-311c63.7-65.7,168.1-65.7,231.8,0l48.3,46.4v2523c0,1387.1-1.9,2521.1-3.9,2519.2C9107.1,445.7,8805.8,372.3,8438.7,283.4z M3860.2-1758.6c179.7-170,386.4-291.7,637.5-372.9c150.7-50.2,189.3-54.1,463.6-54.1c229.9-1.9,328.4,5.8,425,32.8c179.7,50.2,455.9,189.3,585.4,297.5c204.8,168.1,229.9,183.5,293.7,170c83.1-15.4,133.3-73.4,133.3-154.5c0-175.8-496.5-512-935-631.7c-142.9-38.6-206.7-44.4-502.3-42.5c-311,0-351.6,3.9-511.9,52.2c-322.6,98.5-591.2,249.2-795.9,448.2c-85,83.1-102.4,110.1-102.4,166.1C3551.1-1675.5,3719.2-1629.1,3860.2-1758.6z"/></g></g>
</svg>